{
	"asset":{
		"generator":"Khronos glTF Blender I/O v4.2.70",
		"version":"2.0"
	},
	"scene":0,
	"scenes":[
		{
			"name":"Scene",
			"nodes":[
				0
			]
		}
	],
	"nodes":[
		{
			"mesh":0,
			"name":"Circle.008",
			"rotation":[
				0.0065472484566271305,
				-0.7129850387573242,
				-0.005751658231019974,
				0.7011250853538513
			],
			"scale":[
				5.668031215667725,
				5.668031215667725,
				5.668031692504883
			],
			"translation":[
				-0.00508175790309906,
				0.04166979715228081,
				-0.0027489662170410156
			]
		}
	],
	"materials":[
		{
			"doubleSided":true,
			"name":"Material.001",
			"pbrMetallicRoughness":{
				"baseColorTexture":{
					"index":0
				},
				"metallicFactor":0,
				"roughnessFactor":0.5
			}
		}
	],
	"meshes":[
		{
			"name":"Circle.008",
			"primitives":[
				{
					"attributes":{
						"POSITION":0,
						"NORMAL":1,
						"TEXCOORD_0":2
					},
					"indices":3,
					"material":0
				}
			]
		}
	],
	"textures":[
		{
			"sampler":0,
			"source":0
		}
	],
	"images":[
		{
			"mimeType":"image/png",
			"name":"CookieSkin15",
			"uri":"CookieSkin15.png"
		}
	],
	"accessors":[
		{
			"bufferView":0,
			"componentType":5126,
			"count":195024,
			"max":[
				0.051770150661468506,
				0.04517184942960739,
				0.010272355750203133
			],
			"min":[
				-0.051535457372665405,
				-0.043703529983758926,
				-0.010031082667410374
			],
			"type":"VEC3"
		},
		{
			"bufferView":1,
			"componentType":5126,
			"count":195024,
			"type":"VEC3"
		},
		{
			"bufferView":2,
			"componentType":5126,
			"count":195024,
			"type":"VEC2"
		},
		{
			"bufferView":3,
			"componentType":5125,
			"count":1148928,
			"type":"SCALAR"
		}
	],
	"bufferViews":[
		{
			"buffer":0,
			"byteLength":2340288,
			"byteOffset":0,
			"target":34962
		},
		{
			"buffer":0,
			"byteLength":2340288,
			"byteOffset":2340288,
			"target":34962
		},
		{
			"buffer":0,
			"byteLength":1560192,
			"byteOffset":4680576,
			"target":34962
		},
		{
			"buffer":0,
			"byteLength":4595712,
			"byteOffset":6240768,
			"target":34963
		}
	],
	"samplers":[
		{
			"magFilter":9729,
			"minFilter":9987
		}
	],
	"buffers":[
		{
			"byteLength":10836480,
			"uri":"Cookie__.bin"
		}
	]
}
